HIERARCHY
ROOT Hips
{
	OFFSET -13.091600 -28.302996 44.698402
	CHANNELS 6 Xposition Yposition Zposition Zrotation Xrotation Yrotation
	JOINT Chest
	{
		OFFSET -0.673000 0.623899 5.369202
		CHANNELS 6 Xposition Yposition Zposition Zrotation Xrotation Yrotation
		JOINT Chest2
		{
			OFFSET 0.000000 0.000000 4.415001
			CHANNELS 6 Xposition Yposition Zposition Zrotation Xrotation Yrotation
			JOINT Neck
			{
				OFFSET 0.000000 0.000002 10.273300
				CHANNELS 6 Xposition Yposition Zposition Zrotation Xrotation Yrotation
				JOINT Head
				{
					OFFSET 0.000000 0.000000 2.173897
					CHANNELS 6 Xposition Yposition Zposition Zrotation Xrotation Yrotation
					End Site
					{
						OFFSET 0.000000 0.000000 9.961800
					}
				}
			}
			JOINT LeftCollar
			{
				OFFSET 2.359900 -0.565201 5.928101
				CHANNELS 6 Xposition Yposition Zposition Zrotation Xrotation Yrotation
				JOINT LeftShoulder
				{
					OFFSET 5.443700 0.000000 0.000000
					CHANNELS 6 Xposition Yposition Zposition Zrotation Xrotation Yrotation
					JOINT LeftElbow
					{
						OFFSET 0.000000 0.000000 -10.615799
						CHANNELS 6 Xposition Yposition Zposition Zrotation Xrotation Yrotation
						JOINT LeftWrist
						{
							OFFSET 0.000000 -0.000002 -13.110302
							CHANNELS 6 Xposition Yposition Zposition Zrotation Xrotation Yrotation
							End Site
							{
								OFFSET 0.000000 0.000000 -2.173901
							}
						}
					}
				}
			}
			JOINT RightCollar
			{
				OFFSET -2.636600 -1.718800 6.889698
				CHANNELS 6 Xposition Yposition Zposition Zrotation Xrotation Yrotation
				JOINT RightShoulder
				{
					OFFSET -4.139101 0.000000 0.000000
					CHANNELS 6 Xposition Yposition Zposition Zrotation Xrotation Yrotation
					JOINT RightElbow
					{
						OFFSET 0.000000 0.000000 -10.471802
						CHANNELS 6 Xposition Yposition Zposition Zrotation Xrotation Yrotation
						JOINT RightWrist
						{
							OFFSET 0.000000 0.000000 -12.281898
							CHANNELS 6 Xposition Yposition Zposition Zrotation Xrotation Yrotation
							End Site
							{
								OFFSET 0.000000 -0.000002 -2.173901
							}
						}
					}
				}
			}
		}
	}
	JOINT LeftHip
	{
		OFFSET 2.273400 0.176701 -2.518002
		CHANNELS 6 Xposition Yposition Zposition Zrotation Xrotation Yrotation
		JOINT LeftKnee
		{
			OFFSET 0.000000 -0.000002 -20.456402
			CHANNELS 6 Xposition Yposition Zposition Zrotation Xrotation Yrotation
			JOINT LeftAnkle
			{
				OFFSET 0.000000 -0.000002 -16.635300
				CHANNELS 6 Xposition Yposition Zposition Zrotation Xrotation Yrotation
				End Site
				{
					OFFSET 0.000000 -8.812399 0.000001
				}
			}
		}
	}
	JOINT RightHip
	{
		OFFSET -1.914800 0.018101 -2.699299
		CHANNELS 6 Xposition Yposition Zposition Zrotation Xrotation Yrotation
		JOINT RightKnee
		{
			OFFSET 0.000000 -0.000002 -20.148901
			CHANNELS 6 Xposition Yposition Zposition Zrotation Xrotation Yrotation
			JOINT RightAnkle
			{
				OFFSET 0.000000 -0.000002 -16.838301
				CHANNELS 6 Xposition Yposition Zposition Zrotation Xrotation Yrotation
				End Site
				{
					OFFSET 0.000000 -8.328398 0.000001
				}
			}
		}
	}
}
MOTION
Frames: 7
Frame Time: 0.041667
-5.742099 21.986715 43.195705 3541.259435 10.971807 2.142982 -0.673000 0.623897 5.369204 -12.744880 43.843165 12.182191 0.000003 -0.000000 4.415009 3.534997 -5.001952 -0.499589 -0.000001 -0.000012 10.273303 4.988623 5.370225 1.161428 -0.000001 -0.000011 2.173894 -0.733969 -8.305894 -1.312399 2.359896 -0.565213 5.928102 -31.258798 20.571657 21.221719 5.443692 -0.000001 0.000001 -57.657158 346.077489 -89.393830 0.000002 0.000002 -10.615793 618.492044 -136.709078 215.243713 0.000006 -0.000001 -13.110299 -1944.072919 198.285624 -494.439361 -2.636602 -1.718804 6.889700 237.698479 -215.299898 146.300029 -4.139101 -0.000010 -0.000002 -107.749615 -131.684094 285.835767 -0.000003 0.000006 -10.471799 -79.743524 -36.839404 -435.508653 -0.000002 -0.000007 -12.281902 0.738555 -16.769451 0.306172 2.273399 0.176701 -2.517999 -489.181536 -144.607303 -147.787808 0.000003 -0.000002 -20.456396 783.691862 133.343638 -110.239991 -0.000003 -0.000001 -16.635300 -313.418830 2.963977 21.752348 -1.914793 0.018102 -2.699299 118.173993 210.371657 141.164451 0.000000 0.000000 -20.148901 -828.988420 -241.397354 153.964089 -0.000003 -0.000003 -16.838301 1059.054490 12.850143 -0.594790
-5.695598 22.035212 43.197407 3541.627282 10.836663 2.085811 -0.673000 0.623902 5.369203 -13.159736 43.967789 12.334543 -0.000002 0.000003 4.415011 3.590083 -4.946866 -0.497227 0.000001 -0.000008 10.273301 5.127127 6.498777 1.320473 -0.000001 -0.000009 2.173901 -0.922733 -8.119319 -1.323250 2.359899 -0.565209 5.928093 -31.240735 20.373708 21.421739 5.443695 -0.000005 0.000002 -56.797384 346.012903 -87.438798 0.000002 0.000002 -10.615796 618.990429 -136.625380 215.614401 0.000007 -0.000007 -13.110294 -1943.862002 198.269463 -494.022665 -2.636599 -1.718813 6.889696 237.957534 -215.346002 146.279129 -4.139104 -0.000007 -0.000001 -110.643833 -131.035936 282.858378 -0.000003 0.000005 -10.471805 -79.266743 -37.330942 -435.899831 0.000004 -0.000001 -12.281894 0.405817 -16.896457 0.109051 2.273396 0.176708 -2.517997 -489.549711 -145.162543 -148.611556 0.000003 -0.000003 -20.456392 786.883090 132.077431 -113.029290 -0.000003 -0.000000 -16.635300 -314.498792 2.233772 20.529684 -1.914798 0.018104 -2.699294 118.375634 210.490024 141.337706 0.000002 0.000002 -20.148895 -829.922790 -241.550842 154.633721 -0.000000 -0.000001 -16.838301 1059.209016 12.929906 -0.696925
-5.645801 22.073408 43.189007 3542.074905 10.642635 2.008114 -0.673001 0.623901 5.369200 -13.418269 44.118255 12.390060 0.000003 -0.000004 4.415001 3.624804 -4.941618 -0.495195 -0.000004 0.000003 10.273308 5.054249 7.685931 1.531657 -0.000002 -0.000004 2.173897 -0.832145 -7.920643 -1.264281 2.359897 -0.565203 5.928102 -31.470954 20.259531 21.880958 5.443695 -0.000000 0.000006 -55.887313 346.205733 -85.755060 -0.000002 0.000006 -10.615797 619.513785 -136.748542 215.903154 0.000006 -0.000002 -13.110293 -1943.670757 198.310240 -493.496303 -2.636601 -1.718800 6.889708 238.225797 -215.291210 145.903919 -4.139100 -0.000000 0.000000 -113.686457 -130.559817 280.147859 -0.000005 0.000005 -10.471808 -78.550871 -37.678650 -436.101131 0.000005 -0.000004 -12.281899 0.110877 -17.093860 -0.204552 2.273397 0.176710 -2.518007 -490.277481 -145.588747 -149.469059 0.000002 -0.000002 -20.456396 789.000066 131.882087 -114.975798 -0.000004 -0.000002 -16.635300 -314.965076 1.491352 19.758960 -1.914796 0.018104 -2.699304 118.226627 210.530186 141.370094 0.000005 -0.000002 -20.148901 -830.831041 -241.940272 155.439464 -0.000002 -0.000002 -16.838301 1059.721335 13.090454 -0.800297
-5.599299 22.115404 43.166801 3542.429201 10.393023 1.928667 -0.673004 0.623894 5.369210 -13.662090 44.224174 12.500947 0.000002 -0.000000 4.415007 3.642341 -4.853139 -0.479138 -0.000005 -0.000005 10.273311 5.076226 8.839580 1.607055 -0.000003 -0.000002 2.173904 -0.898208 -7.737044 -1.304051 2.359896 -0.565203 5.928101 -31.357822 20.154968 21.839854 5.443695 0.000006 -0.000003 -55.078003 345.971785 -83.800609 0.000002 0.000002 -10.615788 619.608042 -136.822554 216.004241 0.000008 -0.000006 -13.110294 -1943.279305 198.258795 -492.762632 -2.636603 -1.718808 6.889699 238.014717 -215.311304 146.132553 -4.139101 0.000004 0.000007 -116.698987 -130.290243 277.060504 -0.000003 0.000002 -10.471800 -77.781313 -38.115041 -436.095776 0.000003 -0.000000 -12.281895 -0.120156 -17.320989 -0.595964 2.273394 0.176702 -2.517996 -490.875969 -145.935434 -150.236759 0.000007 -0.000003 -20.456394 790.234254 132.223856 -116.200560 -0.000005 -0.000001 -16.635296 -315.147606 0.928810 19.261816 -1.914799 0.018101 -2.699291 118.233812 210.613569 141.420487 0.000002 -0.000003 -20.148903 -831.577990 -242.407239 156.061449 -0.000002 -0.000006 -16.838303 1059.997275 13.313382 -0.973690
-5.554699 22.156012 43.136402 3542.684923 10.395724 1.874162 -0.672997 0.623891 5.369203 -13.723710 44.048361 12.520392 0.000002 0.000004 4.414999 3.682910 -4.836317 -0.483015 -0.000002 -0.000012 10.273310 5.144946 10.048643 1.639065 -0.000002 -0.000000 2.173901 -0.978758 -7.553565 -1.286055 2.359897 -0.565207 5.928104 -31.309819 19.923901 22.064605 5.443696 0.000006 0.000000 -54.074509 346.011591 -81.936636 0.000003 0.000004 -10.615792 619.410731 -137.098125 215.902826 0.000005 -0.000001 -13.110296 -1943.039101 198.388445 -490.923453 -2.636601 -1.718807 6.889708 237.952234 -215.054284 145.961102 -4.139094 0.000004 0.000005 -119.917741 -130.305475 274.353946 -0.000002 0.000005 -10.471800 -76.779966 -37.547664 -436.098317 -0.000002 -0.000002 -12.281896 0.419056 -17.741790 -0.926159 2.273398 0.176701 -2.518003 -491.145407 -146.020306 -150.578214 0.000002 -0.000005 -20.456390 790.825366 132.689334 -116.881612 0.000000 -0.000000 -16.635303 -315.165173 0.410328 19.162654 -1.914799 0.018100 -2.699297 118.201136 210.858718 141.137444 0.000004 -0.000004 -20.148901 -832.082987 -242.950047 156.485221 -0.000001 -0.000007 -16.838299 1060.153987 13.579449 -1.227531
-5.506897 22.190313 43.101902 3542.986763 10.026255 1.717027 -0.672999 0.623897 5.369204 -13.819472 44.207600 12.617367 -0.000001 -0.000000 4.415000 3.695593 -4.866712 -0.488347 -0.000001 -0.000005 10.273294 5.139004 11.289969 1.774999 -0.000003 -0.000006 2.173896 -1.189363 -7.444957 -1.276070 2.359898 -0.565205 5.928092 -31.199423 19.832658 22.254527 5.443700 -0.000001 0.000000 -53.334710 346.427905 -80.243337 0.000004 0.000005 -10.615797 619.628642 -137.479619 215.806534 0.000009 0.000001 -13.110298 -1942.908617 198.390112 -490.406052 -2.636601 -1.718809 6.889689 237.809620 -215.083914 146.050454 -4.139099 0.000004 0.000002 -123.186601 -130.103738 271.577365 -0.000004 0.000004 -10.471800 -75.615119 -37.439873 -436.048675 0.000004 -0.000005 -12.281890 0.818639 -18.140762 -1.460332 2.273399 0.176707 -2.518007 -491.419434 -146.337267 -151.023378 0.000004 -0.000002 -20.456404 790.986285 133.371683 -117.120314 -0.000005 -0.000001 -16.635302 -315.012860 0.232672 18.987728 -1.914796 0.018108 -2.699304 118.404881 211.096695 141.229420 0.000005 -0.000003 -20.148899 -832.647325 -243.694811 156.909608 -0.000001 -0.000003 -16.838303 1060.430254 13.938394 -1.508099
-5.470699 22.234606 43.056198 3543.317016 9.684614 1.854325 -0.673004 0.623892 5.369207 -13.554379 44.372700 12.250236 -0.000002 0.000006 4.415004 3.640360 -4.844886 -0.485128 -0.000000 0.000003 10.273300 4.980786 12.453746 1.974016 -0.000003 0.000004 2.173902 -1.279950 -7.269480 -1.348788 2.359898 -0.565197 5.928095 -30.882673 19.706286 22.289771 5.443695 -0.000001 -0.000000 -52.490557 346.605490 -78.360964 0.000002 0.000001 -10.615793 619.085396 -137.595308 215.415738 0.000010 -0.000002 -13.110292 -1942.505144 198.418676 -490.111863 -2.636602 -1.718801 6.889688 237.704735 -214.859119 146.009500 -4.139094 -0.000009 0.000002 -126.751837 -130.503659 268.864113 -0.000003 0.000003 -10.471799 -74.751523 -37.114428 -436.131867 -0.000001 0.000001 -12.281893 1.293387 -18.644972 -2.241314 2.273395 0.176701 -2.518003 -491.589697 -146.395556 -151.479812 0.000005 -0.000003 -20.456398 790.511287 134.257818 -116.856668 -0.000003 -0.000001 -16.635300 -314.494558 0.184597 18.772290 -1.914801 0.018096 -2.699298 118.255928 211.012725 140.958015 0.000003 -0.000000 -20.148903 -832.237732 -244.488588 156.722133 0.000001 -0.000004 -16.838303 1060.632318 14.382386 -1.836552
